<svg xmlns="http://www.w3.org/2000/svg" viewBox="0 0 128 128" role="img" aria-label="Social Media Time Guard lock icon">
  <rect width="104" height="104" x="12" y="12" fill="#f8fafc" rx="28"/>
  <path fill="#111827" fill-rule="evenodd" d="M64 25c-14.4 0-26 11.6-26 26v11h-3c-5 0-9 4-9 9v21c0 5 4 9 9 9h58c5 0 9-4 9-9V71c0-5-4-9-9-9h-3V51c0-14.4-11.6-26-26-26zm-14 37h28V51c0-7.7-6.3-14-14-14s-14 6.3-14 14v11zm20 19a6 6 0 1 0-12 0c0 2.1 1.1 3.9 2.8 5v5.2a3.2 3.2 0 0 0 6.4 0V86c1.7-1.1 2.8-2.9 2.8-5z" clip-rule="evenodd"/>
</svg>
