<svg xmlns="http://www.w3.org/2000/svg" viewBox="0 0 128 128" role="img" aria-label="Nuan logo">
  <rect x="14" y="11" width="100" height="106" rx="24" fill="#2d7f3e"/>

  <g fill="#fff">
    <path d="M41.5 43.5 26 25l18.5 15.5 5.4 5.4-3 3-5.4-5.4Zm45 0L102 25 83.5 40.5l-5.4 5.4 3 3 5.4-5.4Zm0 41L102 103 83.5 87.5l-5.4-5.4 3-3 5.4 5.4Zm-45 0L26 103l18.5-15.5 5.4-5.4-3-3-5.4 5.4Z"/>

    <path fill-rule="evenodd" d="M64 35a29 29 0 1 0 0 58 29 29 0 0 0 0-58Zm0 7.4a21.6 21.6 0 1 1 0 43.2 21.6 21.6 0 0 1 0-43.2Z" clip-rule="evenodd"/>

    <path fill-rule="evenodd" d="M64 51a13 13 0 1 0 0 26 13 13 0 0 0 0-26Zm0 8.4a4.6 4.6 0 1 1 0 9.2 4.6 4.6 0 0 1 0-9.2Z" clip-rule="evenodd"/>

    <circle cx="64" cy="64" r="5"/>

    <path d="m52.2 41.8 5.5 15.5-15.4-6.1 3.9-4.5-5.2-2.2 6.3-4.7 2.3 5.6 2.6-3.6Zm23.6 0-5.5 15.5 15.4-6.1-3.9-4.5 5.2-2.2-6.3-4.7-2.3 5.6-2.6-3.6ZM52.2 86.2l5.5-15.5-15.4 6.1 3.9 4.5-5.2 2.2 6.3 4.7 2.3-5.6 2.6 3.6Zm23.6 0-5.5-15.5 15.4 6.1-3.9 4.5 5.2 2.2-6.3 4.7-2.3-5.6-2.6 3.6Z"/>
  </g>
</svg>
